<svg width="24" height="24" viewBox="0 0 24 24" fill="none" xmlns="http://www.w3.org/2000/svg">
<path d="M16.3789 9.14702L12.9515 5.53126C12.2705 4.81281 11.93 4.45359 11.5 4.45359C11.07 4.45359 10.7295 4.81281 10.0485 5.53126L6.62106 9.14702C5.83061 9.98089 5.43539 10.3978 5.31303 10.9292C5.19068 11.4606 5.36377 12.0084 5.70994 13.104L5.74191 13.2052C6.1677 14.5527 6.3806 15.2265 6.90839 15.6133C7.43619 16 8.14281 16 9.55604 16L13.444 16C14.8572 16 15.5638 16 16.0916 15.6133C16.6194 15.2265 16.8323 14.5527 17.2581 13.2052L17.2901 13.104C17.6362 12.0084 17.8093 11.4606 17.687 10.9292C17.5646 10.3978 17.1694 9.98089 16.3789 9.14702Z" fill="white"/>
<path d="M21 12C21 16.4183 16.7467 20 11.5 20C6.25329 20 2 16.4183 2 12" stroke="white" stroke-width="2"/>
</svg>
