<svg width="24" height="24" viewBox="0 0 24 24" fill="none" xmlns="http://www.w3.org/2000/svg">
<path d="M10 21C8.11438 21 7.17157 21 6.58579 20.4142C6 19.8284 6 18.8856 6 17L6 10.3005C6 9.55157 6 9.1771 6.12963 8.8348C6.25925 8.49251 6.50731 8.21197 7.00341 7.6509L9.00341 5.389C10.4003 3.8092 11.0987 3.01931 12 3.01931C12.9013 3.01931 13.5997 3.8092 14.9966 5.389L16.9966 7.6509C17.4927 8.21197 17.7407 8.49251 17.8704 8.8348C18 9.1771 18 9.55157 18 10.3005L18 17C18 18.8856 18 19.8284 17.4142 20.4142C16.8284 21 15.8856 21 14 21L10 21Z" fill="white"/>
</svg>
