<svg width="24" height="24" viewBox="0 0 24 24" fill="none" xmlns="http://www.w3.org/2000/svg">
<path d="M10 17C8.11438 17 7.17157 17 6.58579 16.4142C6 15.8284 6 14.8856 6 13L6 9.76948C6 8.89791 6 8.46212 6.17097 8.07563C6.34194 7.68914 6.6644 7.396 7.30931 6.80972L8.80931 5.44608C10.0876 4.28398 10.7268 3.70292 11.5 3.70292C12.2732 3.70292 12.9124 4.28398 14.1907 5.44608L15.6907 6.80972C16.3356 7.396 16.6581 7.68914 16.829 8.07563C17 8.46212 17 8.89791 17 9.76948L17 13C17 14.8856 17 15.8284 16.4142 16.4142C15.8284 17 14.8856 17 13 17L10 17Z" fill="white"/>
<circle cx="12.75" cy="18.75" r="0.75" fill="white"/>
<circle cx="12.75" cy="20.75" r="0.75" fill="white"/>
<circle cx="10.75" cy="18.75" r="0.75" fill="white"/>
<circle cx="10.75" cy="20.75" r="0.75" fill="white"/>
<circle cx="8.75" cy="18.75" r="0.75" fill="white"/>
<circle cx="8.75" cy="20.75" r="0.75" fill="white"/>
<circle cx="6.75" cy="18.75" r="0.75" fill="white"/>
<circle cx="6.75" cy="20.75" r="0.75" fill="white"/>
<circle cx="14.75" cy="18.75" r="0.75" fill="white"/>
<circle cx="14.75" cy="20.75" r="0.75" fill="white"/>
<circle cx="16.75" cy="18.75" r="0.75" fill="white"/>
<circle cx="16.75" cy="20.75" r="0.75" fill="white"/>
</svg>
