<svg width="24" height="24" viewBox="0 0 24 24" fill="none" xmlns="http://www.w3.org/2000/svg">
<path d="M4.12201 12.6177L2.11801 17.1806C1.75088 18.0165 2.28481 19 3.10575 19L6.89425 19C7.71519 19 8.24912 18.0165 7.88199 17.1806L5.87799 12.6177C5.51624 11.7941 4.48376 11.7941 4.12201 12.6177Z" fill="white"/>
<path d="M18.122 12.6177L16.118 17.1806C15.7509 18.0165 16.2848 19 17.1058 19L20.8942 19C21.7152 19 22.2491 18.0165 21.882 17.1806L19.878 12.6177C19.5162 11.7941 18.4838 11.7941 18.122 12.6177Z" fill="white"/>
<path d="M16.4706 8.68351L13.4467 5.5156C12.7675 4.80405 12.4279 4.44828 12 4.44828C11.5721 4.44828 11.2325 4.80405 10.5533 5.5156L7.52938 8.68351C6.83774 9.40809 6.49192 9.77037 6.3532 10.2227C6.32563 10.3126 6.30444 10.4044 6.28978 10.4972C6.21601 10.9646 6.36787 11.4419 6.67158 12.3964C7.04192 13.5603 7.22709 14.1423 7.65188 14.5108C7.7357 14.5835 7.82543 14.6491 7.92014 14.7069C8.40009 15 9.01079 15 10.2322 15L13.7678 15C14.9892 15 15.5999 15 16.0799 14.7069C16.1746 14.6491 16.2643 14.5835 16.3481 14.5108C16.7729 14.1423 16.9581 13.5603 17.3284 12.3964C17.6321 11.4419 17.784 10.9646 17.7102 10.4972C17.6956 10.4044 17.6744 10.3126 17.6468 10.2227C17.5081 9.77037 17.1623 9.40809 16.4706 8.68351Z" fill="white"/>
</svg>
