<svg width="24" height="24" viewBox="0 0 24 24" fill="none" xmlns="http://www.w3.org/2000/svg">
<path d="M13.5 15C13.5 15.4142 13.1642 15.75 12.75 15.75C12.3358 15.75 12 15.4142 12 15C12 14.5858 12.3358 14.25 12.75 14.25C13.1642 14.25 13.5 14.5858 13.5 15Z" fill="white"/>
<path d="M13.5 17C13.5 17.4142 13.1642 17.75 12.75 17.75C12.3358 17.75 12 17.4142 12 17C12 16.5858 12.3358 16.25 12.75 16.25C13.1642 16.25 13.5 16.5858 13.5 17Z" fill="white"/>
<circle cx="13.75" cy="18.75" r="0.75" fill="white"/>
<circle cx="13.75" cy="20.75" r="0.75" fill="white"/>
<circle cx="11.75" cy="18.75" r="0.75" fill="white"/>
<circle cx="11.75" cy="20.75" r="0.75" fill="white"/>
<circle cx="9.75" cy="18.75" r="0.75" fill="white"/>
<circle cx="9.75" cy="20.75" r="0.75" fill="white"/>
<circle cx="7.75" cy="18.75" r="0.75" fill="white"/>
<circle cx="7.75" cy="20.75" r="0.75" fill="white"/>
<circle cx="15.75" cy="18.75" r="0.75" fill="white"/>
<circle cx="15.75" cy="20.75" r="0.75" fill="white"/>
<circle cx="17.75" cy="18.75" r="0.75" fill="white"/>
<circle cx="17.75" cy="20.75" r="0.75" fill="white"/>
<path fill-rule="evenodd" clip-rule="evenodd" d="M6 17H8.16667V13H16.8333V17H19L19 9.23518C19 8.14286 19 7.5967 18.7459 7.14198C18.4918 6.68727 18.0267 6.40103 17.0964 5.82855L14.5964 4.29008C13.5762 3.66227 13.0661 3.34836 12.5 3.34836C11.9339 3.34836 11.4238 3.66227 10.4036 4.29008L7.90361 5.82855C6.97332 6.40103 6.50818 6.68727 6.25409 7.14198C6 7.5967 6 8.14286 6 9.23518V17Z" fill="white"/>
</svg>
