<svg width="24" height="24" viewBox="0 0 24 24" fill="none" xmlns="http://www.w3.org/2000/svg">
<path fill-rule="evenodd" clip-rule="evenodd" d="M6.29289 20.7071C6.58579 21 7.05719 21 8 21L8.16667 21L8.16667 13L16.8333 13L16.8333 21L17 21C17.9428 21 18.4142 21 18.7071 20.7071C19 20.4142 19 19.9428 19 19L19 9.23518C19 8.14286 19 7.5967 18.7459 7.14199C18.4918 6.68727 18.0267 6.40103 17.0964 5.82855L14.5964 4.29009C13.5762 3.66227 13.0661 3.34836 12.5 3.34836C11.9339 3.34836 11.4238 3.66227 10.4036 4.29008L7.90361 5.82855C6.97332 6.40103 6.50818 6.68727 6.25409 7.14199C6 7.5967 6 8.14286 6 9.23518L6 19C6 19.9428 6 20.4142 6.29289 20.7071Z" fill="white"/>
<circle cx="12.5" cy="15.5" r="1.5" fill="white"/>
<circle cx="12.5" cy="19.5" r="1.5" fill="white"/>
</svg>
