<svg width="24" height="24" viewBox="0 0 24 24" fill="none" xmlns="http://www.w3.org/2000/svg">
<path d="M9.61892 16C8.10093 16 7.34194 16 6.81244 15.6093C6.65159 15.4906 6.50944 15.3484 6.39074 15.1876C6 14.6581 6 13.8991 6 12.3811V12.3811C6 11.439 6 10.968 6.18769 10.5659C6.24571 10.4416 6.31637 10.3236 6.39855 10.2137C6.66438 9.85837 7.07958 9.63594 7.90999 9.19108L10.1111 8.0119C11.0357 7.51658 11.498 7.26891 12 7.26891C12.502 7.26891 12.9643 7.51658 13.8889 8.0119L16.09 9.19108C16.9204 9.63594 17.3356 9.85837 17.6015 10.2137C17.6836 10.3236 17.7543 10.4416 17.8123 10.5659C18 10.968 18 11.439 18 12.3811V12.3811C18 13.8991 18 14.6581 17.6093 15.1876C17.4906 15.3484 17.3484 15.4906 17.1876 15.6093C16.6581 16 15.8991 16 14.3811 16L9.61892 16Z" fill="white"/>
<path d="M7.04971 20C6.46997 20 6 19.53 6 18.9503V18.9503C6 18.4417 6.36454 18.0063 6.86518 17.9169L11.2968 17.1256C11.6475 17.0629 11.8228 17.0316 12 17.0316C12.1772 17.0316 12.3525 17.0629 12.7032 17.1256L17.1348 17.9169C17.6355 18.0063 18 18.4417 18 18.9503V18.9503C18 19.53 17.53 20 16.9503 20L7.04971 20Z" fill="white"/>
</svg>
