<svg width="24" height="24" viewBox="0 0 24 24" fill="none" xmlns="http://www.w3.org/2000/svg">
<path fill-rule="evenodd" clip-rule="evenodd" d="M18 17.5186L18 7.73702C18 6.68909 18 6.16512 17.7633 5.72293C17.5267 5.28075 17.0907 4.9901 16.2188 4.40882L14.2188 3.07548C13.1433 2.35848 12.6056 1.99998 12 1.99998C11.3944 1.99998 10.8567 2.35848 9.7812 3.07548L7.7812 4.40882C6.90927 4.9901 6.4733 5.28075 6.23665 5.72293C6 6.16512 6 6.68909 6 7.73702L6 17.5186C6 16.1764 6 15.5054 6.35668 14.9912C6.71337 14.477 7.34192 14.242 8.59902 13.7719L10.599 13.0241C11.2919 12.765 11.6383 12.6354 12 12.6354C12.3617 12.6354 12.7081 12.765 13.401 13.0241L15.401 13.7719C16.6581 14.242 17.2866 14.477 17.6433 14.9912C18 15.5054 18 16.1764 18 17.5186Z" fill="white"/>
<path d="M8 22.5832C7.05719 22.5832 6.58579 22.5832 6.29289 22.2903C6 21.9974 6 21.526 6 20.5832L6 19.2727C6 17.8384 6 17.1212 6.39572 16.5896C6.79144 16.058 7.47849 15.8523 8.85259 15.4408L10.8526 14.842C11.4222 14.6714 11.707 14.5861 12 14.5861C12.293 14.5861 12.5778 14.6714 13.1474 14.842L15.1474 15.4408C16.5215 15.8523 17.2086 16.058 17.6043 16.5896C18 17.1212 18 17.8384 18 19.2727L18 20.5832C18 21.526 18 21.9974 17.7071 22.2903C17.4142 22.5832 16.9428 22.5832 16 22.5832L8 22.5832Z" fill="white"/>
</svg>
