<svg width="24" height="24" viewBox="0 0 24 24" fill="none" xmlns="http://www.w3.org/2000/svg">
<path d="M9.24086 13C8.08218 13 7.50284 13 7.06354 12.7672C6.7097 12.5797 6.42029 12.2903 6.23278 11.9364C6 11.4972 6 10.9178 6 9.75914V9.75914C6 9.28036 6 9.04097 6.05334 8.81467C6.09672 8.63059 6.166 8.45359 6.25909 8.28897C6.37354 8.08659 6.53604 7.9108 6.86104 7.55923L9.06273 5.17748C10.4377 3.69006 11.1252 2.94635 12 2.94635C12.8748 2.94635 13.5623 3.69006 14.9373 5.17748L17.139 7.55922C17.464 7.9108 17.6265 8.08659 17.7409 8.28897C17.834 8.45359 17.9033 8.63059 17.9467 8.81467C18 9.04097 18 9.28036 18 9.75914V9.75914C18 10.9178 18 11.4972 17.7672 11.9365C17.5797 12.2903 17.2903 12.5797 16.9365 12.7672C16.4972 13 15.9178 13 14.7591 13L9.24086 13Z" fill="white"/>
<rect x="6" y="16" width="12" height="1" rx="0.5" fill="white"/>
<rect x="6" y="20" width="12" height="2" rx="1" fill="white"/>
<rect x="13" y="14" width="5" height="2" rx="1" transform="rotate(90 13 14)" fill="white"/>
</svg>
